<?xml version="1.0" standalone="no"?><!DOCTYPE svg PUBLIC "-//W3C//DTD SVG 1.1//EN" "http://www.w3.org/Graphics/SVG/1.1/DTD/svg11.dtd"><svg t="1763177706977" class="icon" viewBox="0 0 1569 1024" version="1.1" xmlns="http://www.w3.org/2000/svg" p-id="5961" xmlns:xlink="http://www.w3.org/1999/xlink" width="306.4453125" height="200"><path d="M156.957094 699.76005h21.13465a10.449817 10.449817 0 0 1 10.256769 10.441423c0 5.766285-4.498877 10.441424-10.256769 10.441424H156.957094v21.101077a10.458211 10.458211 0 0 1-10.466604 10.239981 10.290342 10.290342 0 0 1-10.466604-10.239981v-21.101077h-21.134651a10.449817 10.449817 0 0 1-10.256768-10.441424c0-5.766285 4.498877-10.441424 10.256768-10.441423h21.134651v-21.101077a10.458211 10.458211 0 0 1 10.466604-10.239982c5.774678 0 10.466604 4.498877 10.466604 10.239982v21.101077z m1381.222427-83.556571v-21.092683a10.290342 10.290342 0 0 0-10.340702-10.239982h-0.125902c-5.699137 0-10.349096 4.549238-10.45821 10.239982v21.092683h-21.143044a10.290342 10.290342 0 0 0-10.248375 10.441424c0 5.598416 4.599598 10.449817 10.248375 10.449817h21.143044v21.092683c0 5.749498 4.683533 10.239982 10.45821 10.239982 5.707531 0 10.349096-4.549238 10.466604-10.239982v-21.092683h21.134651c5.757891 0 10.256768-4.683533 10.256768-10.449817 0-5.690744-4.557631-10.323916-10.256768-10.441424h-21.134651z m-760.259875 344.659313h-526.855443A20.824094 20.824094 0 0 1 230.198142 940.063879v-0.100722a20.975175 20.975175 0 0 1 20.866061-20.891241H345.977081a82.885096 82.885096 0 0 1-11.138078-41.664974V271.443445c0.02518-46.113491 37.493441-83.472636 83.682472-83.447456h62.808018v-20.991962c0.02518-46.113491 37.493441-83.472636 83.690865-83.447456h502.203947c46.172245-0.109115 83.682472 37.166097 83.791587 83.2628v606.148153a82.927064 82.927064 0 0 1-11.154866 41.673368h115.770546a20.866061 20.866061 0 0 1 20.949995 20.891241 20.874454 20.874454 0 0 1-20.924815 20.882847h-251.13135v21.000356a82.927064 82.927064 0 0 1-11.163259 41.664974h11.222013a20.832487 20.832487 0 0 1 20.86606 20.899634 20.966782 20.966782 0 0 1-20.86606 20.882848H894.487567a41.597827 41.597827 0 0 1-6.429365 50.86417 41.799269 41.799269 0 0 1-59.173664 0l-50.964892-50.86417z m76.514485-41.782482h66.543093a41.681761 41.681761 0 0 0 41.690155-41.883203V270.469807c0-22.561533-18.079443-40.691336-40.389173-40.691336H417.086199c-22.30973 0-40.389173 18.213738-40.389173 40.691336v606.735693c0 23.132286 18.834851 41.883203 41.664974 41.883203h317.682837l-10.760374-10.75198a41.639794 41.639794 0 0 1-10.877882-40.372387l-19.758129-19.749734c-64.923162 48.228634-156.722078 34.79915-205.04304-29.99811a146.054032 146.054032 0 0 1 13.706467-190.514017c57.100487-57.201208 149.856254-57.369077 207.166578-0.369311 51.728694 51.45171 57.595699 133.052613 13.765221 191.344966l19.774915 19.741342a41.765695 41.765695 0 0 1 40.45632 10.844308l69.959218 69.833317z m150.091271-104.439418h62.967493a41.832843 41.832843 0 0 0 41.673367-41.774089V167.113141a41.681761 41.681761 0 0 0-41.673367-41.782482H564.835703a41.832843 41.832843 0 0 0-41.648187 41.774089v20.891241h397.546299c46.163851-0.109115 83.682472 37.17449 83.791587 83.262801v543.382102zM266.82706 47.003194h31.181583c8.787919 0 15.905545 6.966545 15.905545 15.670529 0 8.64523-7.117627 15.662136-15.905545 15.662136H266.82706v31.131222c0 8.771132-6.966545 15.863578-15.69571 15.863578a15.779644 15.779644 0 0 1-15.695709-15.863578V78.327465h-31.181583a15.74607 15.74607 0 0 1-15.905545-15.578201v-0.083934c0-8.64523 7.117627-15.670529 15.905545-15.670529h31.181583V15.871971C235.435641 7.10084 242.402186 0 251.13135 0a15.779644 15.779644 0 0 1 15.69571 15.871971V47.003194zM20.924815 939.979944A20.975175 20.975175 0 0 1 41.799269 919.08031h125.691577a20.832487 20.832487 0 0 1 20.86606 20.899634 20.966782 20.966782 0 0 1-20.86606 20.882848H41.790875A20.824094 20.824094 0 0 1 20.924815 940.063879v-0.100722z m659.975203-135.025068c40.875992-40.792058 40.875992-106.932266 0-147.724323-40.875992-40.792058-107.133708-40.792058-148.001307 0s-40.867598 106.932266 0 147.724323c40.875992 40.792058 107.133708 40.792058 148.001307 0zM460.404678 313.326648a20.908028 20.908028 0 0 1 20.908028-20.891241h230.231716a20.908028 20.908028 0 0 1 20.924815 20.891241 20.908028 20.908028 0 0 1-20.933209 20.882848H481.337886a20.849274 20.849274 0 0 1-20.933208-20.756946v-0.125902z m0 104.439418a20.84088 20.84088 0 0 1 20.782126-20.891241h335.132773a20.79052 20.79052 0 0 1 20.782127 20.891241 20.84088 20.84088 0 0 1-20.782127 20.891241H481.195198a20.782126 20.782126 0 0 1-20.782127-20.79052v-0.100721z m0 104.439419a20.882848 20.882848 0 0 1 20.891241-20.891241h146.574424a20.84088 20.84088 0 0 1 20.882848 20.899634 20.882848 20.882848 0 0 1-20.882848 20.882848H481.295919a20.824094 20.824094 0 0 1-20.891241-20.76534v-0.125901zM62.782838 396.874825c-34.673249 0-62.782838-28.050835-62.782838-62.665329 0-34.606102 28.109589-62.66533 62.782838-62.66533s62.782838 28.059228 62.782837 62.66533c0 34.614495-28.109589 62.66533-62.782837 62.665329z m0-31.332665a31.357845 31.357845 0 0 0 31.391418-31.332664 31.357845 31.357845 0 0 0-31.391418-31.332665 31.357845 31.357845 0 0 0-31.391419 31.332665 31.357845 31.357845 0 0 0 31.391419 31.332664z m1297.506381-93.997994c-34.664856 0-62.782838-28.050835-62.782837-62.66533 0-34.606102 28.117982-62.656936 62.782837-62.656936 34.673249 0 62.782838 28.050835 62.782838 62.656936 0 34.614495-28.109589 62.66533-62.782838 62.66533z m0-31.332665a31.357845 31.357845 0 0 0 31.391419-31.332665 31.357845 31.357845 0 0 0-31.391419-31.324271 31.357845 31.357845 0 0 0-31.391419 31.324271 31.357845 31.357845 0 0 0 31.391419 31.332665z" fill="#F0D0A9" p-id="5962"></path><path d="M595.933352 663.080771h25.180282l-4.666746 92.327703h-15.846791L595.933352 663.080771z m12.506207 109.114558c3.684715 0 6.714742 1.17508 9.098475 3.500059 2.383733 2.450881 3.5756 5.455728 3.5756 9.006148 0 3.667928-1.191867 6.723135-3.5756 9.174016-2.601963 2.333373-5.623596 3.500059-9.098475 3.500059-3.466486 0-6.387398-1.22544-8.771132-3.667928-2.492848-2.224258-3.735075-5.229105-3.735075-9.006147 0-3.777042 1.242227-6.781889 3.735075-9.006148 2.274619-2.333373 5.203925-3.500059 8.771132-3.500059z" fill="#F0D0A9" p-id="5963"></path></svg>